Coordinates
version=1
nRows=10
nColumns=40
inDegrees=yes

Units are S.I. units (second, meters, Newtons, ...)
Angles are in degrees.

endheader
time	pelvis_tilt	pelvis_list	pelvis_rotation	pelvis_tx	pelvis_ty	pelvis_tz	hip_flexion_r	hip_adduction_r	hip_rotation_r	knee_angle_r	knee_angle_r_beta	ankle_angle_r	subtalar_angle_r	mtp_angle_r	hip_flexion_l	hip_adduction_l	hip_rotation_l	knee_angle_l	knee_angle_l_beta	ankle_angle_l	subtalar_angle_l	mtp_angle_l	lumbar_extension	lumbar_bending	lumbar_rotation	arm_flex_r	arm_add_r	arm_rot_r	elbow_flex_r	pro_sup_r	wrist_flex_r	wrist_dev_r	arm_flex_l	arm_add_l	arm_rot_l	elbow_flex_l	pro_sup_l	wrist_flex_l	wrist_dev_l
     21.30000000	     -3.35772717	     -2.74035053	      0.60350785	      0.86201033	      0.93152470	      0.43831599	     24.67428106	     -6.68080977	     -3.55265415	     67.27335672	     67.27335672	     -0.77629092	    -13.27920061	     -1.85769229	     12.53983657	     -1.43919296	     -3.45848023	     22.17752893	     22.17752893	     15.20694396	    -10.25634281	      3.06790639	     -6.95899442	      5.34659072	      3.01183604	      2.95441995	    -11.42503831	     -9.34285413	     27.79516252	     45.92843786	      0.00000000	      0.00000000	     14.10500735	    -10.94966817	     -1.94284635	     50.76474549	     45.84757000	      0.00000000	      0.00000000
     21.31200000	     -3.37747205	     -2.78133804	      0.40799777	      0.86072625	      0.93225649	      0.43874582	     25.99495309	     -6.62972193	     -4.05817828	     66.38564500	     66.38564500	     -0.43626158	    -13.93629148	     -1.83556738	     11.66642998	     -1.52367610	     -3.68931729	     21.38945734	     21.38945734	     15.38019602	     -9.90305319	      3.13206287	     -7.06583627	      5.40570446	      3.24668447	      1.14488062	    -11.24350095	     -9.29386979	     26.84115149	     45.95748507	      0.00000000	      0.00000000	     15.22889330	    -11.08377123	     -2.28594454	     52.17949517	     45.91142600	      0.00000000	      0.00000000
     21.32400000	     -3.31896242	     -2.82982579	      0.22102317	      0.85946661	      0.93301234	      0.43920941	     27.09374303	     -6.55021633	     -4.58997237	     65.26550778	     65.26550778	     -0.08477540	    -14.44484461	     -1.79394653	     10.75434770	     -1.62979991	     -3.97422642	     20.68353646	     20.68353646	     15.52780110	     -9.49390303	      3.06436302	     -7.30627769	      5.44773904	      3.43119299	     -0.57311865	    -11.06836838	     -9.22259118	     25.78241579	     45.99570886	      0.00000000	      0.00000000	     16.21889445	    -11.24801873	     -2.78099722	     54.21204612	     45.99990059	      0.00000000	      0.00000000
     21.33600000	     -3.28472896	     -2.91466930	      0.01533731	      0.85816272	      0.93370319	      0.43971373	     28.13795949	     -6.38564981	     -5.07984017	     63.94158319	     63.94158319	      0.18432861	    -14.81134153	     -1.56781450	      9.81706483	     -1.75911590	     -4.21116316	     19.86142489	     19.86142489	     15.66146527	     -9.07637445	      3.00390889	     -7.52079102	      5.53029579	      3.46894045	     -2.19754037	    -10.89088687	     -9.13464363	     24.77682917	     46.03011399	      0.00000000	      0.00000000	     17.11994068	    -11.42888660	     -3.29298616	     56.09712003	     46.08536143	      0.00000000	      0.00000000
     21.34800000	     -3.41900296	     -2.93555197	     -0.12092294	      0.85667152	      0.93395653	      0.44016439	     29.22037386	     -6.35340660	     -5.68543792	     62.34009912	     62.34009912	      0.61236244	    -14.89778175	     -1.43048339	      9.33024765	     -1.81124993	     -4.39850809	     19.48184957	     19.48184957	     15.79009326	     -8.95719620	      2.98702033	     -7.46808125	      5.58159931	      3.02779800	     -3.47008308	    -10.72573484	     -9.12032421	     24.26424198	     46.04179077	      0.00000000	      0.00000000	     18.07371181	    -12.01157817	     -3.58819766	     56.77428435	     46.12755699	      0.00000000	      0.00000000
     21.36000000	     -3.29351435	     -3.09671487	     -0.37628266	      0.85550629	      0.93479981	      0.44088826	     29.84384050	     -5.99994588	     -6.14410954	     60.32137381	     60.32137381	      0.89905650	    -15.03010630	     -1.03073522	      8.10623077	     -2.01037146	     -4.73107718	     18.30702637	     18.30702637	     15.87551759	     -8.41404875	      2.96738479	     -7.81253411	      5.78680956	      3.61644847	     -5.16873708	    -10.65450643	     -9.02913644	     23.24346536	     46.07516860	      0.00000000	      0.00000000	     18.92428435	    -11.72821487	     -4.16799372	     59.14940496	     46.22086573	      0.00000000	      0.00000000
     21.37200000	     -3.33666654	     -3.15138049	     -0.58573794	      0.85398131	      0.93507074	      0.44159572	     30.61746948	     -5.78205664	     -6.54459256	     58.13618660	     58.13618660	      1.25933979	    -14.79635398	     -0.75418261	      7.35458555	     -2.11097597	     -5.03836325	     17.59873182	     17.59873182	     15.83863334	     -8.02189800	      2.67973996	     -8.04817689	      5.86679464	      3.48826009	     -6.44652451	    -10.52636917	     -9.00006704	     22.58304547	     46.11026885	      0.00000000	      0.00000000	     19.37250503	    -12.05076616	     -5.09356974	     61.70204756	     46.34729010	      0.00000000	      0.00000000
     21.38400000	     -3.47391487	     -3.31158851	     -0.80001642	      0.85247366	      0.93503751	      0.44247729	     31.31359031	     -5.41168413	     -6.96859807	     55.57971843	     55.57971843	      1.62338939	    -14.34217395	     -0.58554966	      6.74148862	     -2.30715811	     -5.20017964	     16.97899150	     16.97899150	     16.05700641	     -7.85341451	      2.56813510	     -7.98504668	      6.03897854	      3.28798375	     -7.63917312	    -10.53191379	     -9.01308677	     22.14019302	     46.12700846	      0.00000000	      0.00000000	     20.09180617	    -12.37137390	     -5.53195754	     62.85768798	     46.40714207	      0.00000000	      0.00000000
     21.39600000	     -3.41026278	     -3.37080474	     -1.10567727	      0.85110827	      0.93524121	      0.44348800	     31.64055310	     -5.06406692	     -7.19057694	     52.68165380	     52.68165380	      1.86718785	    -13.69181697	     -0.70566329	      5.75932734	     -2.39900715	     -5.58914897	     16.10761344	     16.10761344	     16.05828239	     -7.49001161	      2.19343758	     -8.33140916	      6.05974170	      3.39849037	     -8.90535016	    -10.55158141	     -9.10205026	     21.86611925	     46.15767797	      0.00000000	      0.00000000	     20.44456837	    -12.40472676	     -6.58687893	     65.68517822	     46.54711772	      0.00000000	      0.00000000
     21.40800000	     -3.65048929	     -3.53015939	     -1.31346310	      0.84950849	      0.93478777	      0.44456390	     32.13368599	     -4.61739399	     -7.49058071	     49.50903348	     49.50903348	      2.21447177	    -12.84269140	     -0.61293983	      5.33582110	     -2.60503457	     -5.72120889	     15.62100847	     15.62100847	     16.22260487	     -7.39030958	      2.05141356	     -8.23043882	      6.25033439	      3.19631640	     -9.96001459	    -10.62646915	     -9.16395871	     21.61721437	     46.17092307	      0.00000000	      0.00000000	     21.06979053	    -12.78397211	     -7.00662764	     66.68285774	     46.60145120	      0.00000000	      0.00000000
